<svg width="1769" height="385" viewBox="0 0 1769 385" fill="none" xmlns="http://www.w3.org/2000/svg">
<g clip-path="url(#clip0_1_11)">
<path d="M0.4 368.31L136.16 4.07C137.07 1.62 139.41 0 142.02 0H216.3C218.92 0 221.27 1.63 222.17 4.1L356.15 368.34C357.65 372.42 354.63 376.75 350.28 376.75H304.87C302.24 376.75 299.89 375.11 298.99 372.64L172.61 25.78C171.12 21.7 174.14 17.38 178.49 17.38C182.84 17.38 185.87 21.72 184.36 25.8L56.2 372.66C55.29 375.12 52.95 376.75 50.33 376.75H6.26C1.9 376.75 -1.12 372.4 0.4 368.31ZM70.95 272.24H289.76C293.21 272.24 296.01 275.04 296.01 278.49V316.04C296.01 319.49 293.21 322.29 289.76 322.29H70.95C67.5 322.29 64.7 319.49 64.7 316.04V278.49C64.7 275.04 67.5 272.24 70.95 272.24Z" fill="white"/>
<path d="M432.03 376.74H391.19C387.74 376.74 384.94 373.94 384.94 370.49V92.54C384.94 89.09 387.74 86.29 391.19 86.29H432.03C435.48 86.29 438.28 89.09 438.28 92.54V180.47L437.88 180.6C441.13 165.93 445.94 152.76 452.3 141.08C458.67 129.4 466.57 119.5 476.01 111.37C485.45 103.25 496.41 97.03 508.88 92.73C521.35 88.43 535.31 86.28 550.77 86.28H557.69C561.14 86.28 563.94 89.08 563.94 92.53V130.87C563.94 134.32 561.14 137.12 557.69 137.12H550.9C529.65 137.12 511.82 139.08 497.42 142.98C483.02 146.89 471.45 152.79 462.71 160.7C453.97 168.6 447.71 178.55 443.94 190.54C440.16 202.53 438.28 216.6 438.28 232.76V370.48C438.28 373.93 435.48 376.73 432.03 376.73V376.74Z" fill="white"/>
<path d="M629.75 275.25C633.83 288.21 639.72 299.2 647.4 308.25C655.08 317.3 664.41 324.25 675.39 329.13C686.37 334 698.71 336.44 712.41 336.44C724.44 336.44 735.09 334.64 744.35 331.04C753.61 327.44 761.56 322.5 768.19 316.22C774.82 309.94 780.2 302.61 784.33 294.22C787.75 287.28 790.35 279.93 792.14 272.17C792.8 269.32 795.31 267.28 798.24 267.28H839.19C843.09 267.28 846.04 270.82 845.35 274.66C842.88 288.4 838.7 301.33 832.8 313.45C825.86 327.72 816.71 340.12 805.33 350.66C793.96 361.2 780.48 369.5 764.89 375.56C749.3 381.62 731.76 384.65 712.26 384.65C698.03 384.65 684.66 383 672.15 379.71C659.64 376.42 648.13 371.63 637.64 365.35C627.14 359.07 617.73 351.45 609.38 342.49C601.04 333.53 593.97 323.37 588.17 312C582.37 300.63 577.94 288.18 574.87 274.65C571.8 261.13 570.26 246.72 570.26 231.44C570.26 216.16 571.8 201.76 574.87 188.23C577.94 174.71 582.38 162.28 588.17 150.95C593.97 139.62 601.01 129.46 609.31 120.45C617.61 111.45 627.03 103.83 637.57 97.6C648.11 91.37 659.63 86.6 672.15 83.31C684.66 80.02 698.03 78.37 712.26 78.37C731.76 78.37 749.32 81.4 764.95 87.46C780.58 93.52 794.06 101.82 805.39 112.36C816.72 122.9 825.85 135.3 832.79 149.57C838.68 161.69 842.87 174.63 845.34 188.37C846.03 192.21 843.08 195.75 839.18 195.75H798.23C795.3 195.75 792.79 193.71 792.13 190.86C790.34 183.1 787.73 175.72 784.32 168.74C780.19 160.31 774.81 152.98 768.18 146.74C761.55 140.51 753.6 135.59 744.34 131.99C735.07 128.39 724.43 126.59 712.4 126.59C698.7 126.59 686.36 129.01 675.38 133.84C664.4 138.67 655.07 145.61 647.39 154.65C639.7 163.7 633.82 174.7 629.74 187.65C625.66 200.61 623.61 215.2 623.61 231.45C623.61 247.7 625.65 262.3 629.74 275.25H629.75Z" fill="white"/>
<path d="M888.26 142.27C894.41 128.83 903.21 117.37 914.67 107.89C926.13 98.41 940.03 91.12 956.36 86.02C972.69 80.93 991.01 78.38 1011.29 78.38C1032.8 78.38 1052.08 81.26 1069.12 87.01C1086.16 92.76 1100.6 101.04 1112.46 111.84C1124.32 122.64 1133.4 135.84 1139.73 151.42C1146.05 167.01 1149.21 184.68 1149.21 204.44V370.49C1149.21 373.94 1146.41 376.74 1142.96 376.74H1102.12C1098.67 376.74 1095.87 373.94 1095.87 370.49V297.18H1096.27C1093.99 306.23 1090.87 314.66 1086.92 322.47C1082.97 330.29 1078.27 337.44 1072.83 343.94C1067.38 350.44 1061.21 356.21 1054.32 361.26C1047.43 366.31 1039.92 370.57 1031.79 374.04C1023.67 377.51 1014.95 380.14 1005.64 381.94C996.33 383.74 986.54 384.64 976.26 384.64C960.36 384.64 945.92 382.55 932.92 378.38C919.92 374.21 908.79 368.28 899.53 360.6C890.26 352.92 883.11 343.7 878.06 332.94C873.01 322.18 870.49 310.22 870.49 297.04C870.49 283.86 873.1 271.84 878.33 261.21C883.55 250.59 891.06 241.56 900.86 234.14C910.65 226.72 922.53 221.03 936.49 217.08C950.45 213.13 966.22 211.15 983.78 211.15H1091.6C1095.05 211.15 1097.85 213.95 1097.85 217.4V249.68C1097.85 253.13 1095.05 255.93 1091.6 255.93H983.25C973.41 255.93 964.76 256.76 957.3 258.43C949.83 260.1 943.58 262.6 938.53 265.94C933.48 269.28 929.66 273.41 927.07 278.32C924.48 283.24 923.18 288.9 923.18 295.31C923.18 302.16 924.65 308.27 927.59 313.62C930.53 318.98 934.86 323.46 940.57 327.06C946.28 330.66 953.32 333.4 961.71 335.29C970.1 337.18 979.73 338.12 990.63 338.12C1000.9 338.12 1010.63 337.29 1019.81 335.62C1028.99 333.95 1037.48 331.58 1045.3 328.51C1053.12 325.44 1060.14 321.71 1066.38 317.31C1072.61 312.92 1077.93 307.98 1082.32 302.49C1086.71 297 1090.07 291.01 1092.4 284.51C1094.73 278.01 1095.89 271.16 1095.89 263.96V204.42C1095.89 192.48 1093.89 181.72 1089.9 172.15C1085.9 162.58 1080.22 154.41 1072.84 147.65C1065.46 140.89 1056.51 135.71 1045.97 132.11C1035.43 128.51 1023.58 126.71 1010.4 126.71C997.22 126.71 985.35 128.16 975.56 131.06C965.77 133.96 957.69 138.04 951.32 143.31C944.95 148.58 940.21 154.97 937.09 162.48C934.64 168.37 933.16 174.76 932.63 181.65C932.38 184.92 929.68 187.45 926.4 187.45H885.48C881.9 187.45 879.05 184.44 879.23 180.86C879.94 166.77 882.96 153.91 888.29 142.26L888.26 142.27Z" fill="white"/>
<path d="M1237.14 376.74H1196.3C1192.85 376.74 1190.05 373.94 1190.05 370.49V92.54C1190.05 89.09 1192.85 86.29 1196.3 86.29H1237.14C1240.59 86.29 1243.39 89.09 1243.39 92.54V171.65L1242.99 171.91C1246.41 157.33 1251.4 144.27 1257.94 132.72C1264.48 121.17 1272.39 111.38 1281.65 103.34C1290.91 95.3 1301.41 89.14 1313.13 84.83C1324.85 80.53 1337.52 78.37 1351.13 78.37C1367.73 78.37 1382.57 81.49 1395.65 87.72C1408.73 93.96 1419.8 102.93 1428.85 114.66C1437.89 126.38 1444.83 140.66 1449.66 157.47C1454.49 174.29 1456.9 193.23 1456.9 214.31V370.48C1456.9 373.93 1454.1 376.73 1450.65 376.73H1409.81C1406.36 376.73 1403.56 373.93 1403.56 370.48V214.31C1403.56 199.73 1402.02 186.98 1398.95 176.04C1395.87 165.11 1391.22 155.97 1384.99 148.64C1378.75 141.31 1370.98 135.8 1361.67 132.11C1352.36 128.42 1341.47 126.58 1329 126.58C1320.04 126.58 1311.72 127.52 1304.04 129.41C1296.35 131.3 1289.33 134.04 1282.96 137.64C1276.59 141.24 1270.95 145.7 1266.03 151.01C1261.11 156.32 1256.98 162.43 1253.65 169.32C1250.31 176.22 1247.77 183.86 1246.01 192.24C1244.25 200.63 1243.38 209.74 1243.38 219.57V370.47C1243.38 373.92 1240.58 376.72 1237.13 376.72L1237.14 376.74Z" fill="white"/>
<path d="M1507.65 142.27C1513.8 128.83 1522.6 117.37 1534.06 107.89C1545.52 98.41 1559.42 91.12 1575.75 86.02C1592.08 80.93 1610.39 78.38 1630.68 78.38C1652.19 78.38 1671.47 81.26 1688.51 87.01C1705.55 92.76 1719.99 101.04 1731.85 111.84C1743.71 122.64 1752.79 135.84 1759.12 151.42C1765.44 167.01 1768.6 184.68 1768.6 204.44V370.49C1768.6 373.94 1765.8 376.74 1762.35 376.74H1721.51C1718.06 376.74 1715.26 373.94 1715.26 370.49V297.18H1715.65C1713.37 306.23 1710.25 314.66 1706.3 322.47C1702.35 330.29 1697.65 337.44 1692.21 343.94C1686.76 350.44 1680.59 356.21 1673.7 361.26C1666.8 366.31 1659.3 370.57 1651.17 374.04C1643.05 377.51 1634.33 380.14 1625.02 381.94C1615.71 383.74 1605.92 384.64 1595.64 384.64C1579.74 384.64 1565.3 382.55 1552.3 378.38C1539.3 374.21 1528.17 368.28 1518.91 360.6C1509.64 352.92 1502.49 343.7 1497.44 332.94C1492.39 322.18 1489.87 310.22 1489.87 297.04C1489.87 283.86 1492.48 271.84 1497.71 261.21C1502.93 250.59 1510.44 241.56 1520.24 234.14C1530.03 226.72 1541.91 221.03 1555.87 217.08C1569.83 213.13 1585.6 211.15 1603.16 211.15H1710.98C1714.43 211.15 1717.23 213.95 1717.23 217.4V249.68C1717.23 253.13 1714.43 255.93 1710.98 255.93H1602.63C1592.79 255.93 1584.14 256.76 1576.68 258.43C1569.21 260.1 1562.96 262.6 1557.91 265.94C1552.86 269.28 1549.04 273.41 1546.45 278.32C1543.86 283.24 1542.56 288.9 1542.56 295.31C1542.56 302.16 1544.03 308.27 1546.97 313.62C1549.91 318.98 1554.24 323.46 1559.95 327.06C1565.66 330.66 1572.7 333.4 1581.09 335.29C1589.47 337.18 1599.11 338.12 1610 338.12C1620.28 338.12 1630 337.29 1639.18 335.62C1648.36 333.95 1656.85 331.58 1664.67 328.51C1672.48 325.44 1679.51 321.71 1685.75 317.31C1691.98 312.92 1697.3 307.98 1701.69 302.49C1706.08 297 1709.44 291.01 1711.77 284.51C1714.1 278.01 1715.26 271.16 1715.26 263.96V204.42C1715.26 192.48 1713.26 181.72 1709.27 172.15C1705.27 162.58 1699.59 154.41 1692.21 147.65C1684.83 140.89 1675.88 135.71 1665.34 132.11C1654.8 128.51 1642.95 126.71 1629.77 126.71C1616.59 126.71 1604.72 128.16 1594.93 131.06C1585.14 133.96 1577.06 138.04 1570.69 143.31C1564.32 148.58 1559.58 154.97 1556.46 162.48C1554.01 168.37 1552.53 174.76 1552 181.65C1551.75 184.92 1549.05 187.45 1545.77 187.45H1504.85C1501.27 187.45 1498.42 184.44 1498.6 180.86C1499.31 166.77 1502.33 153.91 1507.66 142.26L1507.65 142.27Z" fill="white"/>
</g>
<defs>
<clipPath id="clip0_1_11">
<rect width="1768.6" height="384.65" fill="white"/>
</clipPath>
</defs>
</svg>
